<svg width="161" height="62" viewBox="0 0 161 62" fill="none" xmlns="http://www.w3.org/2000/svg">
<path d="M16.2891 0H0V16.289H16.2891L47.43 61.3233H61.3236V47.4297L56.8279 44.3211C55.8206 45.6289 54.2389 46.4716 52.4604 46.4716C49.4176 46.4716 46.9509 44.0049 46.9509 40.9621C46.9509 39.8977 47.2527 38.9038 47.7754 38.0614L16.2891 16.289V0Z" fill="#001845"/>
<path d="M0 19.1635H15.81L17.2473 32.0989H0V19.1635Z" fill="#001845"/>
<path d="M19.1636 15.8099V0H32.0991V17.2472L19.1636 15.8099Z" fill="#001845"/>
<path d="M69.3034 46.9564C71.1546 46.9564 72.5027 47.3588 73.3478 48.1637C74.2064 48.9552 74.6356 50.0484 74.6356 51.4436C74.6356 52.2752 74.4612 53.06 74.1125 53.7978C73.7637 54.5222 73.1802 55.1057 72.3619 55.5484C71.557 55.9911 70.457 56.2124 69.0619 56.2124H67.754V61.3233H64.7156V46.9564H69.3034ZM69.1424 49.4515H67.754V53.7173H68.7601C69.6186 53.7173 70.296 53.5496 70.7924 53.2143C71.3021 52.8655 71.557 52.3088 71.557 51.5442C71.557 50.1491 70.7521 49.4515 69.1424 49.4515Z" fill="#001845"/>
<path d="M83.2262 50.1155C84.7018 50.1155 85.8287 50.4375 86.6067 51.0814C87.3982 51.7118 87.7939 52.6844 87.7939 53.999V61.3233H85.7012L85.1177 59.8343H85.0372C84.5677 60.4245 84.0714 60.8538 83.5482 61.1221C83.025 61.3904 82.3073 61.5245 81.3951 61.5245C80.4159 61.5245 79.6043 61.2428 78.9604 60.6794C78.3165 60.1026 77.9946 59.2239 77.9946 58.0435C77.9946 56.8764 78.4037 56.0179 79.222 55.4679C80.0403 54.9045 81.2677 54.596 82.9043 54.5423L84.8158 54.4819V53.999C84.8158 53.4222 84.6616 52.9996 84.3531 52.7313C84.0579 52.4631 83.6421 52.3289 83.1055 52.3289C82.5689 52.3289 82.0458 52.4094 81.536 52.5704C81.0262 52.7179 80.5165 52.9057 80.0067 53.1338L79.0208 51.1015C79.611 50.7929 80.2616 50.5515 80.9726 50.3771C81.697 50.2027 82.4482 50.1155 83.2262 50.1155ZM83.6488 56.2728C82.6829 56.2996 82.0122 56.474 81.6366 56.7959C81.261 57.1179 81.0732 57.5404 81.0732 58.0636C81.0732 58.5197 81.2073 58.8483 81.4756 59.0496C81.7439 59.2374 82.0927 59.3313 82.522 59.3313C83.1659 59.3313 83.7092 59.1435 84.1518 58.7679C84.5945 58.3788 84.8158 57.8355 84.8158 57.138V56.2325L83.6488 56.2728Z" fill="#001845"/>
<path d="M98.6097 50.1356C98.7572 50.1356 98.9316 50.1423 99.1328 50.1558C99.3341 50.1692 99.495 50.1893 99.6158 50.2161L99.3944 53.0332C99.3005 53.0063 99.1597 52.9862 98.9719 52.9728C98.7975 52.946 98.6432 52.9326 98.5091 52.9326C97.9993 52.9326 97.5097 53.0265 97.0402 53.2143C96.5707 53.3886 96.1883 53.6771 95.8932 54.0795C95.6115 54.4819 95.4707 55.0319 95.4707 55.7295V61.3233H92.4725V50.3369H94.7463L95.189 52.1881H95.3298C95.6518 51.6246 96.0944 51.1417 96.6579 50.7393C97.2213 50.3369 97.8719 50.1356 98.6097 50.1356Z" fill="#001845"/>
<path d="M107.848 59.13C108.183 59.13 108.505 59.0965 108.813 59.0294C109.122 58.9624 109.431 58.8819 109.739 58.788V61.0215C109.417 61.1556 109.015 61.2697 108.532 61.3636C108.062 61.4709 107.546 61.5245 106.982 61.5245C106.325 61.5245 105.735 61.4172 105.212 61.2026C104.702 60.9879 104.293 60.6191 103.984 60.0959C103.689 59.5593 103.542 58.8215 103.542 57.8825V52.5905H102.113V51.3228L103.763 50.3167L104.628 48.0027H106.54V50.3369H109.618V52.5905H106.54V57.8825C106.54 58.2983 106.66 58.6136 106.902 58.8282C107.143 59.0294 107.459 59.13 107.848 59.13Z" fill="#001845"/>
<path d="M119.792 50.1356C120.972 50.1356 121.918 50.4576 122.629 51.1015C123.34 51.732 123.695 52.7515 123.695 54.16V61.3233H120.697V54.9045C120.697 54.113 120.556 53.5228 120.275 53.1338C119.993 52.7313 119.544 52.5301 118.927 52.5301C118.014 52.5301 117.391 52.8454 117.055 53.4758C116.72 54.0929 116.552 54.985 116.552 56.152V61.3233H113.554V50.3369H115.848L116.25 51.7454H116.411C116.76 51.182 117.236 50.7728 117.84 50.518C118.457 50.2631 119.108 50.1356 119.792 50.1356Z" fill="#001845"/>
<path d="M132.916 50.1356C134.432 50.1356 135.632 50.5716 136.518 51.4436C137.403 52.3021 137.846 53.5295 137.846 55.1258V56.5746H130.763C130.79 57.4197 131.038 58.0837 131.507 58.5666C131.99 59.0496 132.654 59.291 133.499 59.291C134.21 59.291 134.854 59.2239 135.431 59.0898C136.008 58.9422 136.605 58.7209 137.222 58.4258V60.7398C136.685 61.0081 136.115 61.2026 135.512 61.3233C134.921 61.4575 134.204 61.5245 133.358 61.5245C132.258 61.5245 131.286 61.3233 130.441 60.9209C129.596 60.505 128.932 59.8813 128.449 59.0496C127.966 58.2179 127.724 57.1715 127.724 55.9106C127.724 54.6228 127.939 53.5563 128.368 52.7112C128.811 51.8527 129.421 51.2088 130.199 50.7795C130.977 50.3503 131.883 50.1356 132.916 50.1356ZM132.936 52.2685C132.359 52.2685 131.876 52.4563 131.487 52.8319C131.112 53.2076 130.89 53.7911 130.823 54.5825H135.029C135.015 53.9118 134.841 53.3618 134.505 52.9326C134.17 52.4899 133.647 52.2685 132.936 52.2685Z" fill="#001845"/>
<path d="M148.024 50.1356C148.171 50.1356 148.346 50.1423 148.547 50.1558C148.748 50.1692 148.909 50.1893 149.03 50.2161L148.808 53.0332C148.715 53.0063 148.574 52.9862 148.386 52.9728C148.211 52.946 148.057 52.9326 147.923 52.9326C147.413 52.9326 146.924 53.0265 146.454 53.2143C145.985 53.3886 145.602 53.6771 145.307 54.0795C145.026 54.4819 144.885 55.0319 144.885 55.7295V61.3233H141.887V50.3369H144.16L144.603 52.1881H144.744C145.066 51.6246 145.508 51.1417 146.072 50.7393C146.635 50.3369 147.286 50.1356 148.024 50.1356Z" fill="#001845"/>
<path d="M160.3 58.0636C160.3 59.177 159.904 60.0355 159.113 60.6392C158.335 61.2294 157.168 61.5245 155.612 61.5245C154.847 61.5245 154.19 61.4709 153.64 61.3636C153.09 61.2697 152.54 61.1087 151.99 60.8806V58.4057C152.58 58.674 153.217 58.8953 153.901 59.0697C154.585 59.2441 155.189 59.3313 155.712 59.3313C156.302 59.3313 156.718 59.2441 156.96 59.0697C157.215 58.8953 157.342 58.6672 157.342 58.3855C157.342 58.1977 157.288 58.0301 157.181 57.8825C157.087 57.7349 156.873 57.5673 156.537 57.3795C156.202 57.1917 155.679 56.9502 154.968 56.6551C154.284 56.36 153.72 56.0715 153.277 55.7898C152.835 55.4947 152.506 55.1459 152.292 54.7435C152.077 54.3277 151.97 53.8112 151.97 53.1941C151.97 52.1746 152.365 51.41 153.157 50.9003C153.948 50.3905 155.001 50.1356 156.316 50.1356C157 50.1356 157.651 50.2027 158.268 50.3369C158.885 50.471 159.522 50.6923 160.179 51.0009L159.274 53.1539C158.737 52.9258 158.227 52.738 157.745 52.5905C157.262 52.4295 156.772 52.349 156.276 52.349C155.39 52.349 154.948 52.5905 154.948 53.0734C154.948 53.2478 155.001 53.4088 155.109 53.5563C155.229 53.6905 155.451 53.838 155.773 53.999C156.108 54.16 156.598 54.3746 157.241 54.6429C157.872 54.8978 158.415 55.1661 158.871 55.4478C159.327 55.7161 159.676 56.0581 159.918 56.474C160.173 56.8764 160.3 57.4063 160.3 58.0636Z" fill="#001845"/>
<path d="M52.47 45.3965C51.6064 45.3965 50.8216 45.2055 50.1158 44.8235C49.4182 44.4332 48.8701 43.9017 48.4715 43.2291C48.0812 42.5564 47.8861 41.8008 47.8861 40.962C47.8861 40.1233 48.0812 39.3676 48.4715 38.695C48.8701 38.0224 49.4182 37.495 50.1158 37.113C50.8216 36.7227 51.6064 36.5276 52.47 36.5276C53.3337 36.5276 54.1101 36.7186 54.7994 37.1006C55.4969 37.4826 56.045 38.0141 56.4436 38.695C56.8422 39.3676 57.0415 40.1233 57.0415 40.962C57.0415 41.8008 56.8422 42.5606 56.4436 43.2415C56.045 43.9142 55.4969 44.4415 54.7994 44.8235C54.1101 45.2055 53.3337 45.3965 52.47 45.3965ZM52.47 44.5744C53.1593 44.5744 53.7821 44.4207 54.3385 44.1135C54.8949 43.7979 55.3308 43.3661 55.6464 42.818C55.962 42.2617 56.1197 41.643 56.1197 40.962C56.1197 40.2811 55.962 39.6666 55.6464 39.1185C55.3308 38.5621 54.8949 38.1303 54.3385 37.8231C53.7821 37.5075 53.1593 37.3497 52.47 37.3497C51.7808 37.3497 51.1538 37.5075 50.5891 37.8231C50.0327 38.1303 49.5926 38.5621 49.2687 39.1185C48.9532 39.6666 48.7954 40.2811 48.7954 40.962C48.7954 41.643 48.9532 42.2617 49.2687 42.818C49.5926 43.3661 50.0327 43.7979 50.5891 44.1135C51.1538 44.4207 51.7808 44.5744 52.47 44.5744Z" fill="#001845"/>
<path d="M71.9999 36.6023V45.3217H71.2401L65.6347 38.2466V45.3217H64.713V36.6023H65.4728L71.0906 43.6775V36.6023H71.9999Z" fill="#001845"/>
<path d="M80.4513 36.6023H81.3731V44.5245H86.256V45.3217H80.4513V36.6023Z" fill="#001845"/>
<path d="M95.4568 42.3073V45.3217H94.5475V42.3073L91.0597 36.6023H92.0438L95.0333 41.4977L98.0228 36.6023H98.9446L95.4568 42.3073Z" fill="#001845"/>
</svg>
