<svg width="144" height="131" viewBox="0 0 144 131" fill="none" xmlns="http://www.w3.org/2000/svg">
<path d="M28.4412 109.257L24.137 129.556C23.8123 130.989 22.9654 131.345 21.762 130.67L15.2038 125.838L12.0393 128.881C11.6891 129.231 11.3962 129.524 10.7213 129.524L11.1925 122.845L23.3475 111.862C23.8759 111.39 23.2329 111.129 22.5261 111.601L7.49952 121.062L1.03045 119.037C-0.376704 118.598 -0.402173 117.63 1.32334 116.955L26.6266 107.207C27.7981 106.768 28.8233 107.468 28.4412 109.257V109.257Z" fill="#0466C8"/>
<path d="M30.1619 106.561C65.5221 90.9606 90.7971 107.318 102.442 79.5205C107.096 68.4127 109.519 60.215 105.562 48.8403C101.402 36.8802 80.458 32.7884 70.7221 42.6003C61.9864 51.4042 64.2967 64.8308 72.2821 74.3205C84.6046 88.9643 111.802 81.6005 118.562 58.2004C125.304 34.8629 124.282 14.5201 143.003 1" stroke="#0466C8" stroke-linecap="square"/>
</svg>
